<mxfile host="65bd71144e">
    <diagram id="r8NUwnlav2hCjAIgy-sD" name="Page-1">
        <mxGraphModel dx="743" dy="795" grid="0" gridSize="10" guides="1" tooltips="1" connect="1" arrows="1" fold="1" page="1" pageScale="1" pageWidth="827" pageHeight="1169" math="0" shadow="0">
            <root>
                <mxCell id="0"/>
                <mxCell id="1" parent="0"/>
                <mxCell id="16" style="edgeStyle=none;html=1;exitX=1;exitY=0.5;exitDx=0;exitDy=0;entryX=0;entryY=0.5;entryDx=0;entryDy=0;fontFamily=Georgia;fontSize=15;endArrow=open;endFill=0;rounded=0;endSize=10;startSize=10;" parent="1" source="2" target="12" edge="1">
                    <mxGeometry relative="1" as="geometry"/>
                </mxCell>
                <mxCell id="2" value="" style="shape=table;startSize=0;container=1;collapsible=0;childLayout=tableLayout;fontFamily=Georgia;fontSize=15;rounded=0;" parent="1" vertex="1">
                    <mxGeometry x="194" y="180" width="186" height="100" as="geometry"/>
                </mxCell>
                <mxCell id="3" value="" style="shape=tableRow;horizontal=0;startSize=0;swimlaneHead=0;swimlaneBody=0;top=0;left=0;bottom=0;right=0;collapsible=0;dropTarget=0;fillColor=none;points=[[0,0.5],[1,0.5]];portConstraint=eastwest;fontFamily=Georgia;fontSize=15;rounded=0;" parent="2" vertex="1">
                    <mxGeometry width="186" height="40" as="geometry"/>
                </mxCell>
                <mxCell id="4" value="&amp;lt;&amp;lt;interface&amp;gt;&amp;gt;&lt;br style=&quot;font-size: 15px;&quot;&gt;&lt;i style=&quot;font-size: 15px;&quot;&gt;Iterable&amp;lt;Book&amp;gt;&lt;/i&gt;" style="shape=partialRectangle;html=1;whiteSpace=wrap;connectable=0;overflow=hidden;fillColor=none;top=0;left=0;bottom=0;right=0;pointerEvents=1;fontFamily=Georgia;fontSize=15;rounded=0;" parent="3" vertex="1">
                    <mxGeometry width="186" height="40" as="geometry">
                        <mxRectangle width="186" height="40" as="alternateBounds"/>
                    </mxGeometry>
                </mxCell>
                <mxCell id="5" value="" style="shape=tableRow;horizontal=0;startSize=0;swimlaneHead=0;swimlaneBody=0;top=0;left=0;bottom=0;right=0;collapsible=0;dropTarget=0;fillColor=none;points=[[0,0.5],[1,0.5]];portConstraint=eastwest;fontFamily=Georgia;fontSize=15;rounded=0;" parent="2" vertex="1">
                    <mxGeometry y="40" width="186" height="20" as="geometry"/>
                </mxCell>
                <mxCell id="6" value="" style="shape=partialRectangle;html=1;whiteSpace=wrap;connectable=0;overflow=hidden;fillColor=none;top=0;left=0;bottom=0;right=0;pointerEvents=1;fontFamily=Georgia;fontSize=15;align=left;rounded=0;" parent="5" vertex="1">
                    <mxGeometry width="186" height="20" as="geometry">
                        <mxRectangle width="186" height="20" as="alternateBounds"/>
                    </mxGeometry>
                </mxCell>
                <mxCell id="7" value="" style="shape=tableRow;horizontal=0;startSize=0;swimlaneHead=0;swimlaneBody=0;top=0;left=0;bottom=0;right=0;collapsible=0;dropTarget=0;fillColor=none;points=[[0,0.5],[1,0.5]];portConstraint=eastwest;fontFamily=Georgia;fontSize=15;rounded=0;" parent="2" vertex="1">
                    <mxGeometry y="60" width="186" height="40" as="geometry"/>
                </mxCell>
                <mxCell id="8" value="&lt;i&gt;&amp;nbsp; iterator&lt;/i&gt;" style="shape=partialRectangle;html=1;whiteSpace=wrap;connectable=0;overflow=hidden;fillColor=none;top=0;left=0;bottom=0;right=0;pointerEvents=1;fontFamily=Georgia;align=left;fontSize=15;rounded=0;" parent="7" vertex="1">
                    <mxGeometry width="186" height="40" as="geometry">
                        <mxRectangle width="186" height="40" as="alternateBounds"/>
                    </mxGeometry>
                </mxCell>
                <mxCell id="9" value="" style="shape=table;startSize=0;container=1;collapsible=0;childLayout=tableLayout;fontFamily=Georgia;fontSize=15;rounded=0;" parent="1" vertex="1">
                    <mxGeometry x="467" y="180" width="186" height="100" as="geometry"/>
                </mxCell>
                <mxCell id="10" value="" style="shape=tableRow;horizontal=0;startSize=0;swimlaneHead=0;swimlaneBody=0;top=0;left=0;bottom=0;right=0;collapsible=0;dropTarget=0;fillColor=none;points=[[0,0.5],[1,0.5]];portConstraint=eastwest;fontFamily=Georgia;fontSize=15;rounded=0;" parent="9" vertex="1">
                    <mxGeometry width="186" height="40" as="geometry"/>
                </mxCell>
                <mxCell id="11" value="&amp;lt;&amp;lt;interface&amp;gt;&amp;gt;&lt;br style=&quot;font-size: 15px;&quot;&gt;&lt;i style=&quot;font-size: 15px;&quot;&gt;Iterator&amp;lt;Book&amp;gt;&lt;/i&gt;" style="shape=partialRectangle;html=1;whiteSpace=wrap;connectable=0;overflow=hidden;fillColor=none;top=0;left=0;bottom=0;right=0;pointerEvents=1;fontFamily=Georgia;fontSize=15;rounded=0;" parent="10" vertex="1">
                    <mxGeometry width="186" height="40" as="geometry">
                        <mxRectangle width="186" height="40" as="alternateBounds"/>
                    </mxGeometry>
                </mxCell>
                <mxCell id="12" value="" style="shape=tableRow;horizontal=0;startSize=0;swimlaneHead=0;swimlaneBody=0;top=0;left=0;bottom=0;right=0;collapsible=0;dropTarget=0;fillColor=none;points=[[0,0.5],[1,0.5]];portConstraint=eastwest;fontFamily=Georgia;fontSize=15;rounded=0;" parent="9" vertex="1">
                    <mxGeometry y="40" width="186" height="20" as="geometry"/>
                </mxCell>
                <mxCell id="13" value="" style="shape=partialRectangle;html=1;whiteSpace=wrap;connectable=0;overflow=hidden;fillColor=none;top=0;left=0;bottom=0;right=0;pointerEvents=1;fontFamily=Georgia;fontSize=15;align=left;rounded=0;" parent="12" vertex="1">
                    <mxGeometry width="186" height="20" as="geometry">
                        <mxRectangle width="186" height="20" as="alternateBounds"/>
                    </mxGeometry>
                </mxCell>
                <mxCell id="14" value="" style="shape=tableRow;horizontal=0;startSize=0;swimlaneHead=0;swimlaneBody=0;top=0;left=0;bottom=0;right=0;collapsible=0;dropTarget=0;fillColor=none;points=[[0,0.5],[1,0.5]];portConstraint=eastwest;fontFamily=Georgia;fontSize=15;rounded=0;" parent="9" vertex="1">
                    <mxGeometry y="60" width="186" height="40" as="geometry"/>
                </mxCell>
                <mxCell id="15" value="&lt;i&gt;&amp;nbsp; hasNext&lt;br&gt;&amp;nbsp; next&lt;br&gt;&lt;/i&gt;" style="shape=partialRectangle;html=1;whiteSpace=wrap;connectable=0;overflow=hidden;fillColor=none;top=0;left=0;bottom=0;right=0;pointerEvents=1;fontFamily=Georgia;align=left;fontSize=15;rounded=0;" parent="14" vertex="1">
                    <mxGeometry width="186" height="40" as="geometry">
                        <mxRectangle width="186" height="40" as="alternateBounds"/>
                    </mxGeometry>
                </mxCell>
                <mxCell id="17" value="Creates" style="text;html=1;align=center;verticalAlign=middle;resizable=0;points=[];autosize=1;strokeColor=none;fillColor=none;fontSize=15;fontFamily=Georgia;rounded=0;" parent="1" vertex="1">
                    <mxGeometry x="390" y="190" width="70" height="30" as="geometry"/>
                </mxCell>
                <mxCell id="40" style="edgeStyle=none;html=1;exitX=0.5;exitY=0;exitDx=0;exitDy=0;fontFamily=Georgia;fontSize=15;endArrow=blockThin;endFill=0;dashed=1;rounded=0;endSize=10;startSize=10;" parent="1" source="18" target="7" edge="1">
                    <mxGeometry relative="1" as="geometry"/>
                </mxCell>
                <mxCell id="18" value="" style="shape=table;startSize=0;container=1;collapsible=0;childLayout=tableLayout;fontFamily=Georgia;fontSize=15;rounded=0;" parent="1" vertex="1">
                    <mxGeometry x="194" y="330" width="186" height="180" as="geometry"/>
                </mxCell>
                <mxCell id="19" value="" style="shape=tableRow;horizontal=0;startSize=0;swimlaneHead=0;swimlaneBody=0;top=0;left=0;bottom=0;right=0;collapsible=0;dropTarget=0;fillColor=none;points=[[0,0.5],[1,0.5]];portConstraint=eastwest;fontFamily=Georgia;fontSize=15;rounded=0;" parent="18" vertex="1">
                    <mxGeometry width="186" height="40" as="geometry"/>
                </mxCell>
                <mxCell id="20" value="BookShelf" style="shape=partialRectangle;html=1;whiteSpace=wrap;connectable=0;overflow=hidden;fillColor=none;top=0;left=0;bottom=0;right=0;pointerEvents=1;fontFamily=Georgia;fontSize=15;rounded=0;" parent="19" vertex="1">
                    <mxGeometry width="186" height="40" as="geometry">
                        <mxRectangle width="186" height="40" as="alternateBounds"/>
                    </mxGeometry>
                </mxCell>
                <mxCell id="21" value="" style="shape=tableRow;horizontal=0;startSize=0;swimlaneHead=0;swimlaneBody=0;top=0;left=0;bottom=0;right=0;collapsible=0;dropTarget=0;fillColor=none;points=[[0,0.5],[1,0.5]];portConstraint=eastwest;fontFamily=Georgia;fontSize=15;rounded=0;" parent="18" vertex="1">
                    <mxGeometry y="40" width="186" height="50" as="geometry"/>
                </mxCell>
                <mxCell id="22" value="&amp;nbsp; books&lt;br&gt;&amp;nbsp; last" style="shape=partialRectangle;html=1;whiteSpace=wrap;connectable=0;overflow=hidden;fillColor=none;top=0;left=0;bottom=0;right=0;pointerEvents=1;fontFamily=Georgia;fontSize=15;align=left;rounded=0;" parent="21" vertex="1">
                    <mxGeometry width="186" height="50" as="geometry">
                        <mxRectangle width="186" height="50" as="alternateBounds"/>
                    </mxGeometry>
                </mxCell>
                <mxCell id="23" value="" style="shape=tableRow;horizontal=0;startSize=0;swimlaneHead=0;swimlaneBody=0;top=0;left=0;bottom=0;right=0;collapsible=0;dropTarget=0;fillColor=none;points=[[0,0.5],[1,0.5]];portConstraint=eastwest;fontFamily=Georgia;fontSize=15;rounded=0;" parent="18" vertex="1">
                    <mxGeometry y="90" width="186" height="90" as="geometry"/>
                </mxCell>
                <mxCell id="24" value="&amp;nbsp; getBookAt&lt;br&gt;&amp;nbsp; appendBook&lt;br&gt;&amp;nbsp; getLength&lt;br&gt;&amp;nbsp; iterator" style="shape=partialRectangle;html=1;whiteSpace=wrap;connectable=0;overflow=hidden;fillColor=none;top=0;left=0;bottom=0;right=0;pointerEvents=1;fontFamily=Georgia;align=left;fontSize=15;rounded=0;" parent="23" vertex="1">
                    <mxGeometry width="186" height="90" as="geometry">
                        <mxRectangle width="186" height="90" as="alternateBounds"/>
                    </mxGeometry>
                </mxCell>
                <mxCell id="42" style="edgeStyle=none;html=1;exitX=0;exitY=0.5;exitDx=0;exitDy=0;entryX=0.994;entryY=0.788;entryDx=0;entryDy=0;entryPerimeter=0;fontFamily=Georgia;fontSize=15;endArrow=open;endFill=0;startArrow=diamondThin;startFill=0;rounded=0;endSize=10;startSize=10;" parent="1" source="25" target="21" edge="1">
                    <mxGeometry relative="1" as="geometry"/>
                </mxCell>
                <mxCell id="25" value="" style="shape=table;startSize=0;container=1;collapsible=0;childLayout=tableLayout;fontFamily=Georgia;fontSize=15;rounded=0;" parent="1" vertex="1">
                    <mxGeometry x="467" y="330" width="186" height="160" as="geometry"/>
                </mxCell>
                <mxCell id="26" value="" style="shape=tableRow;horizontal=0;startSize=0;swimlaneHead=0;swimlaneBody=0;top=0;left=0;bottom=0;right=0;collapsible=0;dropTarget=0;fillColor=none;points=[[0,0.5],[1,0.5]];portConstraint=eastwest;fontFamily=Georgia;fontSize=15;rounded=0;" parent="25" vertex="1">
                    <mxGeometry width="186" height="40" as="geometry"/>
                </mxCell>
                <mxCell id="27" value="BookShelfIterator" style="shape=partialRectangle;html=1;whiteSpace=wrap;connectable=0;overflow=hidden;fillColor=none;top=0;left=0;bottom=0;right=0;pointerEvents=1;fontFamily=Georgia;fontSize=15;rounded=0;" parent="26" vertex="1">
                    <mxGeometry width="186" height="40" as="geometry">
                        <mxRectangle width="186" height="40" as="alternateBounds"/>
                    </mxGeometry>
                </mxCell>
                <mxCell id="28" value="" style="shape=tableRow;horizontal=0;startSize=0;swimlaneHead=0;swimlaneBody=0;top=0;left=0;bottom=0;right=0;collapsible=0;dropTarget=0;fillColor=none;points=[[0,0.5],[1,0.5]];portConstraint=eastwest;fontFamily=Georgia;fontSize=15;rounded=0;" parent="25" vertex="1">
                    <mxGeometry y="40" width="186" height="60" as="geometry"/>
                </mxCell>
                <mxCell id="29" value="&amp;nbsp; bookShelf&lt;br&gt;&amp;nbsp; index" style="shape=partialRectangle;html=1;whiteSpace=wrap;connectable=0;overflow=hidden;fillColor=none;top=0;left=0;bottom=0;right=0;pointerEvents=1;fontFamily=Georgia;fontSize=15;align=left;rounded=0;" parent="28" vertex="1">
                    <mxGeometry width="186" height="60" as="geometry">
                        <mxRectangle width="186" height="60" as="alternateBounds"/>
                    </mxGeometry>
                </mxCell>
                <mxCell id="30" value="" style="shape=tableRow;horizontal=0;startSize=0;swimlaneHead=0;swimlaneBody=0;top=0;left=0;bottom=0;right=0;collapsible=0;dropTarget=0;fillColor=none;points=[[0,0.5],[1,0.5]];portConstraint=eastwest;fontFamily=Georgia;fontSize=15;rounded=0;" parent="25" vertex="1">
                    <mxGeometry y="100" width="186" height="60" as="geometry"/>
                </mxCell>
                <mxCell id="31" value="&amp;nbsp; hasNext&lt;br&gt;&amp;nbsp; next" style="shape=partialRectangle;html=1;whiteSpace=wrap;connectable=0;overflow=hidden;fillColor=none;top=0;left=0;bottom=0;right=0;pointerEvents=1;fontFamily=Georgia;align=left;fontSize=15;rounded=0;" parent="30" vertex="1">
                    <mxGeometry width="186" height="60" as="geometry">
                        <mxRectangle width="186" height="60" as="alternateBounds"/>
                    </mxGeometry>
                </mxCell>
                <mxCell id="32" value="" style="shape=table;startSize=0;container=1;collapsible=0;childLayout=tableLayout;fontFamily=Georgia;fontSize=15;rounded=0;" parent="1" vertex="1">
                    <mxGeometry x="194" y="550" width="186" height="100" as="geometry"/>
                </mxCell>
                <mxCell id="33" value="" style="shape=tableRow;horizontal=0;startSize=0;swimlaneHead=0;swimlaneBody=0;top=0;left=0;bottom=0;right=0;collapsible=0;dropTarget=0;fillColor=none;points=[[0,0.5],[1,0.5]];portConstraint=eastwest;fontFamily=Georgia;fontSize=15;rounded=0;" parent="32" vertex="1">
                    <mxGeometry width="186" height="40" as="geometry"/>
                </mxCell>
                <mxCell id="34" value="Book" style="shape=partialRectangle;html=1;whiteSpace=wrap;connectable=0;overflow=hidden;fillColor=none;top=0;left=0;bottom=0;right=0;pointerEvents=1;fontFamily=Georgia;fontSize=15;rounded=0;" parent="33" vertex="1">
                    <mxGeometry width="186" height="40" as="geometry">
                        <mxRectangle width="186" height="40" as="alternateBounds"/>
                    </mxGeometry>
                </mxCell>
                <mxCell id="35" value="" style="shape=tableRow;horizontal=0;startSize=0;swimlaneHead=0;swimlaneBody=0;top=0;left=0;bottom=0;right=0;collapsible=0;dropTarget=0;fillColor=none;points=[[0,0.5],[1,0.5]];portConstraint=eastwest;fontFamily=Georgia;fontSize=15;rounded=0;" parent="32" vertex="1">
                    <mxGeometry y="40" width="186" height="30" as="geometry"/>
                </mxCell>
                <mxCell id="36" value="&amp;nbsp; name" style="shape=partialRectangle;html=1;whiteSpace=wrap;connectable=0;overflow=hidden;fillColor=none;top=0;left=0;bottom=0;right=0;pointerEvents=1;fontFamily=Georgia;fontSize=15;align=left;rounded=0;" parent="35" vertex="1">
                    <mxGeometry width="186" height="30" as="geometry">
                        <mxRectangle width="186" height="30" as="alternateBounds"/>
                    </mxGeometry>
                </mxCell>
                <mxCell id="37" value="" style="shape=tableRow;horizontal=0;startSize=0;swimlaneHead=0;swimlaneBody=0;top=0;left=0;bottom=0;right=0;collapsible=0;dropTarget=0;fillColor=none;points=[[0,0.5],[1,0.5]];portConstraint=eastwest;fontFamily=Georgia;fontSize=15;rounded=0;" parent="32" vertex="1">
                    <mxGeometry y="70" width="186" height="30" as="geometry"/>
                </mxCell>
                <mxCell id="38" value="&amp;nbsp; getName" style="shape=partialRectangle;html=1;whiteSpace=wrap;connectable=0;overflow=hidden;fillColor=none;top=0;left=0;bottom=0;right=0;pointerEvents=1;fontFamily=Georgia;align=left;fontSize=15;rounded=0;" parent="37" vertex="1">
                    <mxGeometry width="186" height="30" as="geometry">
                        <mxRectangle width="186" height="30" as="alternateBounds"/>
                    </mxGeometry>
                </mxCell>
                <mxCell id="41" style="edgeStyle=none;html=1;fontFamily=Georgia;fontSize=15;endArrow=blockThin;endFill=0;dashed=1;rounded=0;endSize=10;startSize=10;" parent="1" source="26" target="14" edge="1">
                    <mxGeometry relative="1" as="geometry">
                        <mxPoint x="612.62" y="380" as="sourcePoint"/>
                        <mxPoint x="612.62" y="270.0000000000001" as="targetPoint"/>
                    </mxGeometry>
                </mxCell>
                <mxCell id="43" style="edgeStyle=none;html=1;fontFamily=Georgia;fontSize=15;endArrow=open;endFill=0;startArrow=diamondThin;startFill=0;rounded=0;endSize=10;startSize=10;" parent="1" source="23" target="33" edge="1">
                    <mxGeometry relative="1" as="geometry">
                        <mxPoint x="471.12" y="560.6" as="sourcePoint"/>
                        <mxPoint x="290.004" y="560.0000000000001" as="targetPoint"/>
                    </mxGeometry>
                </mxCell>
            </root>
        </mxGraphModel>
    </diagram>
</mxfile>